<svg xmlns="http://www.w3.org/2000/svg" width="720" height="200" viewBox="0 0 720 200" role="img" aria-label="Books banner"><title>Books banner</title><rect x="0" y="0" width="100%" height="100%" fill="#0A0C11"/><line x1="120" y1="164" x2="600" y2="164" fill="none" stroke="#2D7579" stroke-width="3" stroke-linejoin="round" stroke-linecap="round"/><rect x="150" y="80" width="24" height="84" fill="none" stroke="#3AB9BF" stroke-width="3" stroke-linejoin="round" stroke-linecap="round"/><line x1="156" y1="94" x2="168" y2="94" fill="none" stroke="#2D7579" stroke-width="3" stroke-linejoin="round" stroke-linecap="round"/><rect x="184" y="60" width="28" height="104" fill="#FCC514"/><rect x="212" y="80" width="24" height="84" fill="none" stroke="#3AB9BF" stroke-width="3" stroke-linejoin="round" stroke-linecap="round"/><line x1="218" y1="94" x2="230" y2="94" fill="none" stroke="#2D7579" stroke-width="3" stroke-linejoin="round" stroke-linecap="round"/><rect x="244" y="80" width="28" height="84" fill="none" stroke="#3AB9BF" stroke-width="3" stroke-linejoin="round" stroke-linecap="round"/><line x1="250" y1="94" x2="266" y2="94" fill="none" stroke="#2D7579" stroke-width="3" stroke-linejoin="round" stroke-linecap="round"/><rect x="470" y="68" width="28" height="96" fill="none" stroke="#3AB9BF" stroke-width="3" stroke-linejoin="round" stroke-linecap="round"/><line x1="476" y1="82" x2="492" y2="82" fill="none" stroke="#2D7579" stroke-width="3" stroke-linejoin="round" stroke-linecap="round"/><rect x="500" y="80" width="28" height="84" fill="none" stroke="#3AB9BF" stroke-width="3" stroke-linejoin="round" stroke-linecap="round"/><line x1="506" y1="94" x2="522" y2="94" fill="none" stroke="#2D7579" stroke-width="3" stroke-linejoin="round" stroke-linecap="round"/><rect x="534" y="68" width="28" height="96" fill="none" stroke="#3AB9BF" stroke-width="3" stroke-linejoin="round" stroke-linecap="round"/><line x1="540" y1="82" x2="556" y2="82" fill="none" stroke="#2D7579" stroke-width="3" stroke-linejoin="round" stroke-linecap="round"/><rect x="562" y="68" width="28" height="96" fill="none" stroke="#3AB9BF" stroke-width="3" stroke-linejoin="round" stroke-linecap="round"/><line x1="568" y1="82" x2="584" y2="82" fill="none" stroke="#2D7579" stroke-width="3" stroke-linejoin="round" stroke-linecap="round"/><path d="M292,72 Q326,60 360,72 V150 Q326,138 292,150 Z M360,72 Q394,60 428,72 V150 Q394,138 360,150" fill="none" stroke="#3AB9BF" stroke-width="3" stroke-linejoin="round" stroke-linecap="round"/><path d="M302,96 q24,-8 48,0" fill="none" stroke="#2D7579" stroke-width="3" stroke-linejoin="round" stroke-linecap="round"/><path d="M302,112 q24,-8 48,0" fill="none" stroke="#2D7579" stroke-width="3" stroke-linejoin="round" stroke-linecap="round"/><path d="M302,128 q24,-8 48,0" fill="none" stroke="#2D7579" stroke-width="3" stroke-linejoin="round" stroke-linecap="round"/><path d="M370,96 q24,-8 48,0" fill="none" stroke="#2D7579" stroke-width="3" stroke-linejoin="round" stroke-linecap="round"/><path d="M370,112 q24,-8 48,0" fill="none" stroke="#2D7579" stroke-width="3" stroke-linejoin="round" stroke-linecap="round"/><path d="M370,128 q24,-8 48,0" fill="none" stroke="#2D7579" stroke-width="3" stroke-linejoin="round" stroke-linecap="round"/></svg>
