<?xml version="1.0" standalone="no"?>
<!DOCTYPE svg PUBLIC "-//W3C//DTD SVG 20010904//EN"
 "http://www.w3.org/TR/2001/REC-SVG-20010904/DTD/svg10.dtd">
<svg version="1.0" xmlns="http://www.w3.org/2000/svg"
 width="260.000000pt" height="260.000000pt" viewBox="0 0 260.000000 260.000000"
 preserveAspectRatio="xMidYMid meet">
<metadata>
Created by potrace 1.14, written by Peter Selinger 2001-2017
</metadata>
<g transform="translate(0.000000,260.000000) scale(0.100000,-0.100000)"
fill="#000000" stroke="none">
<path d="M248 1878 c-3 -404 -4 -410 -59 -450 -14 -11 -44 -22 -67 -25 l-42
-6 0 -102 0 -102 40 -6 c51 -7 85 -28 107 -70 16 -29 18 -70 21 -390 l3 -357
106 0 105 0 -4 353 c-4 288 -8 361 -21 402 -17 51 -56 100 -116 145 l-33 25
53 40 c69 51 99 110 110 213 4 42 8 218 8 390 l1 312 -105 0 -104 0 -3 -372z"/>
<path d="M2132 1868 c3 -364 4 -385 24 -428 19 -42 68 -94 121 -130 23 -15 22
-15 -34 -60 -36 -28 -66 -63 -82 -95 l-26 -49 -3 -368 -4 -368 101 0 100 0 3
348 c3 324 4 350 23 386 25 50 61 76 113 83 l42 6 0 103 0 104 -31 0 c-55 0
-100 29 -123 79 -20 44 -21 64 -24 409 l-3 362 -100 0 -100 0 3 -382z"/>
<path d="M1039 1660 c-36 -19 -84 -71 -108 -118 -19 -36 -31 -16 -31 54 l0 64
-110 0 -110 0 0 -415 0 -415 110 0 110 0 0 239 0 238 40 51 c50 62 95 85 161
80 27 -1 49 -1 49 2 1 3 7 56 13 118 7 62 11 115 8 117 -12 12 -100 2 -132
-15z"/>
<path d="M1480 1664 c-134 -36 -228 -134 -266 -279 -16 -59 -18 -211 -3 -275
32 -141 130 -244 273 -285 81 -24 265 -17 356 13 99 33 95 28 80 115 -7 41
-16 80 -20 87 -5 8 -23 6 -67 -9 -175 -59 -329 -27 -383 79 -38 74 -52 70 255
70 l275 0 0 73 c0 83 -21 179 -51 240 -26 53 -93 123 -139 147 -79 40 -211 51
-310 24z m210 -192 c35 -27 71 -83 68 -107 -3 -19 -11 -20 -157 -23 -87 -1
-159 2 -164 7 -13 13 9 74 37 100 55 52 162 63 216 23z"/>
</g>
</svg>
